<?xml version="1.0" encoding="utf-8"?>
<!-- Generator: Adobe Illustrator 16.0.4, SVG Export Plug-In . SVG Version: 6.00 Build 0)  -->
<!DOCTYPE svg PUBLIC "-//W3C//DTD SVG 1.1//EN" "http://www.w3.org/Graphics/SVG/1.1/DTD/svg11.dtd">
<svg version="1.1" id="Layer_1" xmlns="http://www.w3.org/2000/svg" xmlns:xlink="http://www.w3.org/1999/xlink" x="0px" y="0px"
	 width="24px" height="24px" viewBox="0 0 24 24" enable-background="new 0 0 24 24" xml:space="preserve">
<path fill="none" d="M0,0h24v24H0V0z"/>
<path fill="#0088A3" d="M20.121,3.797c-0.502-0.503-1.314-0.503-1.814,0L12,10.088L5.696,3.785c-0.502-0.502-1.314-0.502-1.817,0
	c-0.502,0.503-0.502,1.314,0,1.817l6.304,6.304l-6.304,6.306c-0.502,0.501-0.502,1.313,0,1.815c0.503,0.502,1.315,0.502,1.817,0
	L12,13.725l6.306,6.303c0.5,0.502,1.312,0.502,1.814,0s0.502-1.314,0-1.815l-6.303-6.306l6.303-6.304
	C20.611,5.113,20.611,4.288,20.121,3.797z"/>
</svg>
