<?xml version="1.0" encoding="utf-8"?>
<!-- Generator: Adobe Illustrator 16.0.4, SVG Export Plug-In . SVG Version: 6.00 Build 0)  -->
<!DOCTYPE svg PUBLIC "-//W3C//DTD SVG 1.1//EN" "http://www.w3.org/Graphics/SVG/1.1/DTD/svg11.dtd">
<svg version="1.1" id="Layer_1" xmlns="http://www.w3.org/2000/svg" xmlns:xlink="http://www.w3.org/1999/xlink" x="0px" y="0px" width="12px" height="12px" viewBox="0 0 12 12" enable-background="new 0 0 12 12" xml:space="preserve">
    <path fill="#666666" d="M0,0h0.75v12H0V0z M0.75,11.25H12V12H0.75V11.25z" />
    <path fill="#E702C4" d="M7.037,9.092L7.67,3.91L4.444,3.875l0.041-3.867L3.734,0l-0.05,4.618L6.823,4.65L6.292,9.002L7.037,9.092z" />
    <path fill="#E702C4" d="M4.298,7.165C4.15,7.311,4.147,7.549,4.292,7.694L6.39,9.841c0.145,0.146,0.382,0.146,0.53,0.004
	l2.146-2.098c0.146-0.144,0.149-0.382,0.004-0.529c-0.144-0.148-0.382-0.15-0.53-0.007L6.664,9.045L4.828,7.17
	C4.684,7.024,4.447,7.02,4.298,7.165z" />
</svg>
